<svg id="logo_copy" data-name="logo copy" xmlns="http://www.w3.org/2000/svg"
    viewBox="0 0 101.7 28.41">
    <defs>
        <style>.cls-1{fill:#fff;}</style>
    </defs>
    <g id="wooti.">
        <path class="cls-1"
            d="M22.52,22.71,25.15,9.92h5.18L25.21,30H20.72l-3.8-12.64L13.11,30H8.64L3.52,9.92H8.7l2.61,12.77L15,9.92h3.87Z"
            transform="translate(-3.52 -1.96)" />
        <path class="cls-1"
            d="M32.15,19.78a11.89,11.89,0,0,1,1.15-5.33,8.48,8.48,0,0,1,3.31-3.62,9.71,9.71,0,0,1,5-1.28A9.12,9.12,0,0,1,48.26,12a10,10,0,0,1,2.87,6.75l0,1.38a10.48,10.48,0,0,1-2.58,7.41,9,9,0,0,1-6.92,2.79,9,9,0,0,1-6.93-2.78A10.67,10.67,0,0,1,32.15,20Zm5.36.38a7.46,7.46,0,0,0,1.08,4.37,3.86,3.86,0,0,0,6.12,0,8.2,8.2,0,0,0,1.1-4.78,7.44,7.44,0,0,0-1.1-4.35,3.56,3.56,0,0,0-3.08-1.54,3.5,3.5,0,0,0-3,1.53A8.31,8.31,0,0,0,37.51,20.16Z"
            transform="translate(-3.52 -1.96)" />
        <path class="cls-1"
            d="M53.64,19.78a11.89,11.89,0,0,1,1.15-5.33,8.41,8.41,0,0,1,3.31-3.62,9.68,9.68,0,0,1,5-1.28A9.12,9.12,0,0,1,69.75,12a10,10,0,0,1,2.87,6.75l0,1.38a10.52,10.52,0,0,1-2.57,7.41,9,9,0,0,1-6.93,2.79,9,9,0,0,1-6.93-2.78A10.71,10.71,0,0,1,53.64,20Zm5.36.38a7.54,7.54,0,0,0,1.07,4.37,3.87,3.87,0,0,0,6.13,0,8.21,8.21,0,0,0,1.09-4.78,7.44,7.44,0,0,0-1.09-4.35,3.56,3.56,0,0,0-3.08-1.54,3.52,3.52,0,0,0-3,1.53A8.4,8.4,0,0,0,59,20.16Z"
            transform="translate(-3.52 -1.96)" />
        <path class="cls-1"
            d="M82.38,5V9.92h3.43v3.94H82.38v10a2.4,2.4,0,0,0,.42,1.59,2.17,2.17,0,0,0,1.64.49A9,9,0,0,0,86,25.83v4.06a11.05,11.05,0,0,1-3.24.48q-5.64,0-5.76-5.7V13.86H74.08V9.92H77V5Z"
            transform="translate(-3.52 -1.96)" />
        <path class="cls-1"
            d="M88.76,4.73a2.64,2.64,0,0,1,.81-2,3.48,3.48,0,0,1,4.39,0,2.64,2.64,0,0,1,.81,2,2.63,2.63,0,0,1-.82,2,3.44,3.44,0,0,1-4.36,0A2.64,2.64,0,0,1,88.76,4.73ZM94.46,30H89.08V9.92h5.38Z"
            transform="translate(-3.52 -1.96)" />
        <path class="cls-1"
            d="M99.15,27.37a2.71,2.71,0,0,1,.86-2.08,3.09,3.09,0,0,1,2.16-.8,3.13,3.13,0,0,1,2.19.8,2.71,2.71,0,0,1,.86,2.08,2.67,2.67,0,0,1-.86,2.05,3.44,3.44,0,0,1-4.36,0A2.66,2.66,0,0,1,99.15,27.37Z"
            transform="translate(-3.52 -1.96)" />
    </g>
</svg>